{"title":"Alcatraz 1x01.avi","uid":7024889,"size":366974976,"categoryP":"video","categoryS":"tv_shows","magnet":"?xt=urn:btih:725213187f704cc81d4be48ed3e9fe94d5a1a08b&amp;dn=Alcatraz+1x01.avi&amp;tr=udp%3A%2F%2Ftracker.openbittorrent.com%3A80&amp;tr=udp%3A%2F%2Fopen.demonii.com%3A1337&amp;tr=udp%3A%2F%2Ftracker.coppersurfer.tk%3A6969&amp;tr=udp%3A%2F%2Fexodus.desync.com%3A6969","seeders":0,"leechers":0,"uploader":"jklgtavsr","files":1,"time":1328960469,"description":"Format                         : AVI\nFormat/Info                    : Audio Video Interleave\nFile size                      : 350 MiB\nDuration                       : 42mn 20s\nOverall bit rate mode          : Variable\nOverall bit rate               : 1 155 Kbps\nWriting application            : VirtualDubMod 1.5.10.2 (build 2540/release)\nWriting library                : VirtualDubMod build 2540/release\n\nVideo\nID                             : 0\nFormat                         : MPEG-4 Visual\nFormat profile                 : Advanced Simple@L5\nFormat settings, BVOP          : 2\nFormat settings, QPel          : No\nFormat settings, GMC           : No warppoints\nFormat settings, Matrix        : Default (H.263)\nCodec ID                       : XVID\nCodec ID/Hint                  : XviD\nDuration                       : 42mn 20s\nBit rate                       : 1 020 Kbps\nWidth                          : 624 pixels\nHeight                         : 352 pixels\nDisplay aspect ratio           : 16:9\nFrame rate                     : 25.000 fps\nColor space                    : YUV\nChroma subsampling             : 4:2:0\nBit depth                      : 8 bits\nScan type                      : Progressive\nCompression mode               : Lossy\nBits/(Pixel*Frame)             : 0.186\nStream size                    : 309 MiB (88%)\nWriting library                : XviD 64\n\nAudio\nID                             : 1\nFormat                         : MPEG Audio\nFormat version                 : Version 1\nFormat profile                 : Layer 3\nMode                           : Joint stereo\nMode extension                 : MS Stereo\nCodec ID                       : 55\nCodec ID/Hint                  : MP3\nDuration                       : 42mn 20s\nBit rate mode                  : Variable\nBit rate                       : 128 Kbps\nChannel(s)                     : 2 channels\nSampling rate                  : 48.0 KHz\nCompression mode               : Lossy\nStream size                    : 37.0 MiB (11%)\nAlignment                      : Aligned on interleaves\nInterleave, duration           : 24 ms (0.60 video frame)\nInterleave, preload duration   : 522 ms\nWriting library                : LAME3.98b\nEncoding settings              : -m j -V 4 -q 3 -lowpass 17 --abr 128\n","torrent":{"xt":"urn:btih:725213187f704cc81d4be48ed3e9fe94d5a1a08b","amp;dn":"Alcatraz+1x01.avi","amp;tr":["udp%3A%2F%2Ftracker.openbittorrent.com%3A80","udp%3A%2F%2Fopen.demonii.com%3A1337","udp%3A%2F%2Ftracker.coppersurfer.tk%3A6969","udp%3A%2F%2Fexodus.desync.com%3A6969"],"infoHash":"725213187f704cc81d4be48ed3e9fe94d5a1a08b","infoHashBuffer":{"type":"Buffer","data":[114,82,19,24,127,112,76,200,29,75,228,142,211,233,254,148,213,161,160,139]},"announce":[],"urlList":[]}}